<svg width="800" height="450" xmlns="http://www.w3.org/2000/svg">
  <defs>
    <linearGradient id="workflowGradient" x1="0%" y1="0%" x2="100%" y2="100%">
      <stop offset="0%" stop-color="#0f172a"/>
      <stop offset="100%" stop-color="#7c3aed"/>
    </linearGradient>
  </defs>
  <rect width="800" height="450" fill="url(#workflowGradient)"/>
  <text x="40" y="45" fill="#8b5cf6" font-family="Arial, sans-serif" font-size="28" font-weight="bold">IM-Workflow</text>
  <text x="40" y="70" fill="#c4b5fd" font-family="Arial, sans-serif" font-size="14">AI-Powered Business Automation</text>
  
  <rect x="40" y="100" width="720" height="320" fill="#1e1b4b" rx="12"/>
  <text x="60" y="130" fill="#f1f5f9" font-family="Arial, sans-serif" font-size="16" font-weight="bold">Visual Workflow Builder</text>
  
  <rect x="80" y="160" width="90" height="50" fill="#3730a3" rx="8"/>
  <text x="110" y="180" fill="white" font-family="Arial, sans-serif" font-size="9" text-anchor="middle">Trigger</text>
  <text x="125" y="195" fill="#c4b5fd" font-family="Arial, sans-serif" font-size="8" text-anchor="middle">Email Received</text>
  
  <line x1="170" y1="185" x2="210" y2="185" stroke="#8b5cf6" stroke-width="3"/>
  <polygon points="205,180 215,185 205,190" fill="#8b5cf6"/>
  
  <rect x="220" y="160" width="90" height="50" fill="#7c3aed" rx="8"/>
  <text x="250" y="180" fill="white" font-family="Arial, sans-serif" font-size="9" text-anchor="middle">AI Analysis</text>
  <text x="265" y="195" fill="#c4b5fd" font-family="Arial, sans-serif" font-size="8" text-anchor="middle">Extract Data</text>
  
  <line x1="310" y1="185" x2="350" y2="185" stroke="#8b5cf6" stroke-width="3"/>
  <polygon points="345,180 355,185 345,190" fill="#8b5cf6"/>
  
  <rect x="360" y="160" width="90" height="50" fill="#6d28d9" rx="8"/>
  <text x="390" y="180" fill="white" font-family="Arial, sans-serif" font-size="9" text-anchor="middle">Decision</text>
  <text x="405" y="195" fill="#c4b5fd" font-family="Arial, sans-serif" font-size="8" text-anchor="middle">Priority Level</text>
  
  <line x1="450" y1="185" x2="490" y2="160" stroke="#8b5cf6" stroke-width="2"/>
  <polygon points="485,155 495,160 485,165" fill="#8b5cf6"/>
  
  <line x1="450" y1="185" x2="490" y2="210" stroke="#8b5cf6" stroke-width="2"/>
  <polygon points="485,205 495,210 485,215" fill="#8b5cf6"/>
  
  <rect x="500" y="140" width="90" height="35" fill="#059669" rx="6"/>
  <text x="530" y="155" fill="white" font-family="Arial, sans-serif" font-size="8" text-anchor="middle">High Priority</text>
  <text x="545" y="168" fill="#a7f3d0" font-family="Arial, sans-serif" font-size="7" text-anchor="middle">Slack Alert</text>
  
  <rect x="500" y="190" width="90" height="35" fill="#dc2626" rx="6"/>
  <text x="530" y="205" fill="white" font-family="Arial, sans-serif" font-size="8" text-anchor="middle">Low Priority</text>
  <text x="545" y="218" fill="#fecaca" font-family="Arial, sans-serif" font-size="7" text-anchor="middle">Add to Queue</text>
  
  <rect x="80" y="240" width="250" height="140" fill="#312e81" rx="8"/>
  <text x="90" y="265" fill="#e0e7ff" font-family="Arial, sans-serif" font-size="13" font-weight="bold">Automation Statistics</text>
  
  <text x="90" y="285" fill="#34d399" font-family="Arial, sans-serif" font-size="11">Tasks Automated: 15,240</text>
  <text x="90" y="300" fill="#fbbf24" font-family="Arial, sans-serif" font-size="11">Time Saved: 420 hours</text>
  <text x="90" y="315" fill="#60a5fa" font-family="Arial, sans-serif" font-size="11">Success Rate: 98.5%</text>
  <text x="90" y="330" fill="#f87171" font-family="Arial, sans-serif" font-size="11">Active Workflows: 23</text>
  <text x="90" y="345" fill="#a78bfa" font-family="Arial, sans-serif" font-size="11">Integrations: 15+</text>
  <text x="90" y="360" fill="#fb7185" font-family="Arial, sans-serif" font-size="11">Users Supported: 1,200+</text>
  
  <rect x="350" y="240" width="380" height="140" fill="#312e81" rx="8"/>
  <text x="360" y="265" fill="#e0e7ff" font-family="Arial, sans-serif" font-size="13" font-weight="bold">Popular Integrations</text>
  
  <circle cx="380" cy="285" r="12" fill="#ea4335"/>
  <text x="375" y="290" fill="white" font-family="Arial, sans-serif" font-size="7">Gmail</text>
  
  <circle cx="420" cy="285" r="12" fill="#4285f4"/>
  <text x="415" y="290" fill="white" font-family="Arial, sans-serif" font-size="7">Drive</text>
  
  <circle cx="460" cy="285" r="12" fill="#7289da"/>
  <text x="452" y="290" fill="white" font-family="Arial, sans-serif" font-size="6">Discord</text>
  
  <circle cx="500" cy="285" r="12" fill="#ff6900"/>
  <text x="490" y="290" fill="white" font-family="Arial, sans-serif" font-size="6">HubSpot</text>
  
  <circle cx="540" cy="285" r="12" fill="#1da1f2"/>
  <text x="532" y="290" fill="white" font-family="Arial, sans-serif" font-size="6">Twitter</text>
  
  <circle cx="580" cy="285" r="12" fill="#ff4785"/>
  <text x="575" y="290" fill="white" font-family="Arial, sans-serif" font-size="7">Slack</text>
  
  <circle cx="620" cy="285" r="12" fill="#36c5f0"/>
  <text x="610" y="290" fill="white" font-family="Arial, sans-serif" font-size="6">Zapier</text>
  
  <circle cx="660" cy="285" r="12" fill="#0078d4"/>
  <text x="650" y="290" fill="white" font-family="Arial, sans-serif" font-size="6">Outlook</text>
  
  <text x="360" y="320" fill="#a5b4fc" font-family="Arial, sans-serif" font-size="10">Connect your favorite tools and automate workflows across platforms</text>
  <text x="360" y="335" fill="#a5b4fc" font-family="Arial, sans-serif" font-size="10">with AI-powered decision making and intelligent routing.</text>
  <text x="360" y="350" fill="#a5b4fc" font-family="Arial, sans-serif" font-size="10">Save 20+ hours weekly with smart automation that learns from your patterns.</text>
  <text x="360" y="365" fill="#a5b4fc" font-family="Arial, sans-serif" font-size="10">Built for scale - handle thousands of workflows simultaneously.</text>
</svg>
