<svg width="800" height="450" xmlns="http://www.w3.org/2000/svg">
  <defs>
    <linearGradient id="scarceGradient" x1="0%" y1="0%" x2="100%" y2="100%">
      <stop offset="0%" stop-color="#0f172a"/>
      <stop offset="100%" stop-color="#1e40af"/>
    </linearGradient>
  </defs>
  <rect width="800" height="450" fill="url(#scarceGradient)"/>
  
  <!-- Header -->
  <rect x="0" y="0" width="800" height="70" fill="#1e293b"/>
  <text x="40" y="40" fill="#3b82f6" font-family="Arial, sans-serif" font-size="28" font-weight="bold">Scarce.us</text>
  <text x="200" y="25" fill="#e2e8f0" font-family="Arial, sans-serif" font-size="14">Shop</text>
  <text x="250" y="25" fill="#e2e8f0" font-family="Arial, sans-serif" font-size="14">Products</text>
  <text x="320" y="25" fill="#e2e8f0" font-family="Arial, sans-serif" font-size="14">About</text>
  
  <rect x="650" y="15" width="100" height="30" fill="#3b82f6" rx="6"/>
  <text x="685" y="35" fill="white" font-family="Arial, sans-serif" font-size="14">Cart (2)</text>
  
  <text x="40" y="55" fill="#94a3b8" font-family="Arial, sans-serif" font-size="12">Premium E-commerce Platform</text>
  
  <!-- Main Content -->
  <rect x="40" y="100" width="720" height="320" fill="#1f2937" rx="12"/>
  
  <!-- Product Showcase -->
  <rect x="60" y="120" width="300" height="280" fill="#374151" rx="8"/>
  <rect x="80" y="140" width="260" height="180" fill="#4b5563" rx="6"/>
  <rect x="100" y="160" width="220" height="140" fill="#6b7280" rx="4"/>
  <text x="210" y="235" fill="#f3f4f6" font-family="Arial, sans-serif" font-size="18" text-anchor="middle">Product Image</text>
  
  <text x="80" y="335" fill="#f9fafb" font-family="Arial, sans-serif" font-size="16" font-weight="bold">Limited Edition Sneaker</text>
  <text x="80" y="355" fill="#9ca3af" font-family="Arial, sans-serif" font-size="12">Premium Quality • Fast Shipping</text>
  <text x="80" y="375" fill="#3b82f6" font-family="Arial, sans-serif" font-size="18" font-weight="bold">$299.99</text>
  
  <rect x="250" y="370" width="80" height="25" fill="#3b82f6" rx="4"/>
  <text x="280" y="385" fill="white" font-family="Arial, sans-serif" font-size="12" text-anchor="middle">Add to Cart</text>
  
  <!-- Features Panel -->
  <rect x="380" y="120" width="360" height="280" fill="#111827" rx="8"/>
  <text x="400" y="145" fill="#f9fafb" font-family="Arial, sans-serif" font-size="18" font-weight="bold">Platform Features</text>
  
  <circle cx="410" cy="170" r="4" fill="#10b981"/>
  <text x="425" y="175" fill="#d1d5db" font-family="Arial, sans-serif" font-size="13">Custom Shopify Theme Optimization</text>
  
  <circle cx="410" cy="190" r="4" fill="#10b981"/>
  <text x="425" y="195" fill="#d1d5db" font-family="Arial, sans-serif" font-size="13">Automated Inventory Management</text>
  
  <circle cx="410" cy="210" r="4" fill="#10b981"/>
  <text x="425" y="215" fill="#d1d5db" font-family="Arial, sans-serif" font-size="13">Real-time Order Processing</text>
  
  <circle cx="410" cy="230" r="4" fill="#10b981"/>
  <text x="425" y="235" fill="#d1d5db" font-family="Arial, sans-serif" font-size="13">Mobile Performance Optimized</text>
  
  <!-- Performance Metrics -->
  <rect x="400" y="260" width="320" height="120" fill="#374151" rx="6"/>
  <text x="410" y="280" fill="#9ca3af" font-family="Arial, sans-serif" font-size="14" font-weight="bold">Performance Metrics</text>
  
  <text x="410" y="300" fill="#60a5fa" font-family="Arial, sans-serif" font-size="12">Page Speed: 95/100</text>
  <text x="580" y="300" fill="#34d399" font-family="Arial, sans-serif" font-size="12">Conversion: +23%</text>
  
  <text x="410" y="320" fill="#fbbf24" font-family="Arial, sans-serif" font-size="12">Load Time: 1.2s</text>
  <text x="580" y="320" fill="#f87171" font-family="Arial, sans-serif" font-size="12">Mobile: 96/100</text>
  
  <text x="410" y="340" fill="#a78bfa" font-family="Arial, sans-serif" font-size="12">Uptime: 99.9%</text>
  <text x="580" y="340" fill="#fb7185" font-family="Arial, sans-serif" font-size="12">SEO: 100/100</text>
  
  <rect x="410" y="350" width="290" height="20" fill="#065f46" rx="10"/>
  <text x="540" y="365" fill="#ffffff" font-family="Arial, sans-serif" font-size="11" text-anchor="middle">Optimized for Conversions</text>
</svg>