<svg width="800" height="450" xmlns="http://www.w3.org/2000/svg">
  <defs>
    <linearGradient id="yossiGradient" x1="0%" y1="0%" x2="100%" y2="100%">
      <stop offset="0%" stop-color="#0c4a6e"/>
      <stop offset="100%" stop-color="#7c3aed"/>
    </linearGradient>
  </defs>
  <rect width="800" height="450" fill="url(#yossiGradient)"/>
  <rect x="0" y="0" width="800" height="60" fill="#1e293b"/>
  <text x="40" y="40" fill="#8b5cf6" font-family="Arial, sans-serif" font-size="24" font-weight="bold">Yossi.co</text>
  <text x="200" y="25" fill="#e2e8f0" font-family="Arial, sans-serif" font-size="12">Products</text>
  <text x="270" y="25" fill="#e2e8f0" font-family="Arial, sans-serif" font-size="12">Collections</text>
  <text x="350" y="25" fill="#e2e8f0" font-family="Arial, sans-serif" font-size="12">About</text>
  <rect x="650" y="15" width="100" height="30" fill="#7c3aed" rx="6"/>
  <text x="685" y="35" fill="white" font-family="Arial, sans-serif" font-size="12">View Cart</text>
  <text x="40" y="55" fill="#94a3b8" font-family="Arial, sans-serif" font-size="11">Premium E-commerce Experience</text>
  
  <rect x="40" y="90" width="720" height="320" fill="#1f2937" rx="12"/>
  <text x="60" y="120" fill="#f1f5f9" font-family="Arial, sans-serif" font-size="20" font-weight="bold">Featured Products</text>
  
  <rect x="60" y="140" width="200" height="240" fill="#374151" rx="8"/>
  <rect x="75" y="155" width="170" height="120" fill="#4b5563" rx="6"/>
  <text x="160" y="220" fill="#d1d5db" font-family="Arial, sans-serif" font-size="12" text-anchor="middle">Product</text>
  <text x="75" y="300" fill="#f9fafb" font-family="Arial, sans-serif" font-size="14" font-weight="bold">Premium Watch</text>
  <text x="75" y="320" fill="#8b5cf6" font-family="Arial, sans-serif" font-size="16" font-weight="bold">$1,299</text>
  <rect x="75" y="340" width="70" height="25" fill="#7c3aed" rx="4"/>
  <text x="105" y="355" fill="white" font-family="Arial, sans-serif" font-size="10" text-anchor="middle">Add to Cart</text>
  
  <rect x="280" y="140" width="200" height="240" fill="#374151" rx="8"/>
  <rect x="295" y="155" width="170" height="120" fill="#4b5563" rx="6"/>
  <text x="380" y="220" fill="#d1d5db" font-family="Arial, sans-serif" font-size="12" text-anchor="middle">Product</text>
  <text x="295" y="300" fill="#f9fafb" font-family="Arial, sans-serif" font-size="14" font-weight="bold">Designer Bag</text>
  <text x="295" y="320" fill="#8b5cf6" font-family="Arial, sans-serif" font-size="16" font-weight="bold">$899</text>
  <rect x="295" y="340" width="70" height="25" fill="#7c3aed" rx="4"/>
  <text x="325" y="355" fill="white" font-family="Arial, sans-serif" font-size="10" text-anchor="middle">Add to Cart</text>
  
  <rect x="500" y="140" width="240" fill="#111827" rx="8"/>
  <text x="520" y="165" fill="#f9fafb" font-family="Arial, sans-serif" font-size="16" font-weight="bold">Platform Features</text>
  <text x="520" y="185" fill="#10b981" font-family="Arial, sans-serif" font-size="11">✓ Secure Stripe Payments</text>
  <text x="520" y="200" fill="#10b981" font-family="Arial, sans-serif" font-size="11">✓ Advanced Product Filters</text>
  <text x="520" y="215" fill="#10b981" font-family="Arial, sans-serif" font-size="11">✓ Inventory Management</text>
  <text x="520" y="230" fill="#10b981" font-family="Arial, sans-serif" font-size="11">✓ Customer Portal</text>
  <text x="520" y="245" fill="#10b981" font-family="Arial, sans-serif" font-size="11">✓ Mobile Responsive</text>
  
  <rect x="520" y="270" width="200" height="80" fill="#374151" rx="6"/>
  <text x="530" y="290" fill="#9ca3af" font-family="Arial, sans-serif" font-size="12">Performance</text>
  <text x="530" y="310" fill="#3b82f6" font-family="Arial, sans-serif" font-size="11">Conversion: 4.2%</text>
  <text x="530" y="325" fill="#10b981" font-family="Arial, sans-serif" font-size="11">Speed: 2.1s</text>
  <text x="530" y="340" fill="#f59e0b" font-family="Arial, sans-serif" font-size="11">Mobile: 96/100</text>
</svg>
